<svg xmlns="http://www.w3.org/2000/svg" xmlns:xlink="http://www.w3.org/1999/xlink" viewBox="0,0,256,256" width="100px" height="100px" fill-rule="nonzero" fill="#ffffff"><g fill="#ffffff" fill-rule="nonzero" stroke="none" stroke-width="1" stroke-linecap="butt" stroke-linejoin="miter" stroke-miterlimit="10" stroke-dasharray="" stroke-dashoffset="0" font-family="none" font-weight="none" font-size="none" text-anchor="none" style="mix-blend-mode: normal"><g transform="scale(5.12,5.12)"><path d="M25,1.51367c-0.16,0 -0.31911,0.06808 -0.41211,0.20508l-14.63477,21.5c-0.076,0.111 -0.10108,0.24223 -0.08008,0.36523c0.021,0.123 0.08927,0.23836 0.19727,0.31836l14.63281,10.77734c0.089,0.065 0.19288,0.09766 0.29688,0.09766c0.104,0 0.20788,-0.0307 0.29688,-0.0957l14.63281,-10.7793c0.127,-0.094 0.19712,-0.23581 0.20312,-0.38281c0.004,-0.104 -0.02294,-0.20878 -0.08594,-0.30078l-14.63477,-21.5c-0.093,-0.137 -0.25211,-0.20508 -0.41211,-0.20508zM24.5,3.62305v15.25586c-0.85901,0.25207 -11.05477,3.23711 -12.9668,3.79688zM25.5,3.62305l12.9668,19.05273c-1.9128,-0.56028 -12.11337,-3.54796 -12.9668,-3.79687zM24.5,19.92188v13.36523l-12.98437,-9.5625zM25.5,19.92188l12.98438,3.80273l-12.98437,9.5625zM40.03711,26.00195c-0.11525,-0.00838 -0.23448,0.0237 -0.33398,0.0957l-14.70312,10.7832l-14.70312,-10.7832c-0.197,-0.144 -0.47244,-0.12412 -0.64844,0.04688c-0.175,0.172 -0.19769,0.44648 -0.05469,0.64648l15,21c0.094,0.131 0.24525,0.20898 0.40625,0.20898c0.161,0 0.31225,-0.07894 0.40625,-0.21094l15,-21c0.142,-0.199 0.12031,-0.47153 -0.05469,-0.64453c-0.0865,-0.0855 -0.1992,-0.1342 -0.31445,-0.14258zM12.2207,28.74805l12.2793,9.00781v8.18555zM37.7793,28.74805l-12.2793,17.19336v-8.18555z"></path></g></g></svg>