<svg xmlns="http://www.w3.org/2000/svg"  viewBox="0 0 48 48" width="96px" height="96px" baseProfile="basic" fill="url(#H7MoFArPKHSd1rwnEAHRxa)"><linearGradient id="H7MoFArPKHSd1rwnEAHRxa" x1="24" x2="24" y1="6.213" y2="41.008" gradientUnits="userSpaceOnUse"><stop offset="0" stop-color="#138cdd"/><stop offset="1" stop-color="#0c7dd4"/></linearGradient><circle cx="24" cy="24" r="20" fill="url(#H7MoFArPKHSd1rwnEAHRxa)"/><path d="M37.8,24.579l-7.775,2.262l-0.2,0.372c-0.246,0.461-0.884,0.706-1.498,0.77l0.227-0.148	c0.15-0.1,3.686-2.482,3.649-6.14c-0.024-2.545-1.757-4.951-5.199-7.18L27,13c0-1.103-0.897-2-2-2s-2,0.897-2,2v0.433	c-1.626-0.297-2.884-0.426-2.896-0.427l-2.49-0.26l1.445,1.692L11.098,26H11v1c0,4.636,3.364,8,8,8l9.788,0.002	c2.454,0,3.25-0.329,5.454-3.592c1.379-2.262,2.043-2.511,2.964-2.855l0.843-0.319L37.8,24.579z M19.763,25.646	c0.032-0.038,2.368-2.919,1.872-6.474c0.614,2.144,0.624,4.756-1.402,7.187L20,26.638V26h-0.533L19.763,25.646z" opacity=".05"/><g opacity=".07"><path d="M37.343,25.232l-6.978,2.03l-0.1,0.186C29.852,28.225,28.786,28.5,28,28.5h-1.5v-1h1.65l0.126-0.083 c0.142-0.094,3.459-2.335,3.426-5.718c-0.023-2.408-1.735-4.711-5.089-6.845l-0.109-0.052L26.5,13c0-0.827-0.673-1.5-1.5-1.5 s-1.5,0.673-1.5,1.5v1.037c-1.831-0.363-3.376-0.527-3.448-0.534l-1.245-0.13l0.813,0.952c0.233,0.273,5.662,6.755,0.996,12.354 l-0.684,0.82H23.5v1H21c-1.206,0-1.5-0.294-1.5-1.5v-0.5h-8V27c0,4.346,3.154,7.5,7.5,7.5l9.527,0.002c0.09,0,0.177,0,0.261,0 c2.271,0,2.907-0.215,5.027-3.352c1.469-2.41,2.239-2.698,3.214-3.063l0.495-0.188L37.343,25.232z"/><path d="M19.563,15.722l-0.421-0.525L12.049,25.5h7.185l0.149-0.179C19.424,25.273,23.361,20.47,19.563,15.722z"/></g><path fill="#f9f9f9" d="M36.886,25.886l-6.178,1.798C30.157,28.713,28.84,29,28,29h-2v-2h2c0,0,8.207-5.448-1.655-11.724 c-0.113-0.038-0.229-0.073-0.345-0.109V13c0-0.552-0.448-1-1-1s-1,0.448-1,1v1.651C21.92,14.201,20,14,20,14s6,7,1,13h3v2h-3 c-1.485,0-2-0.509-2-2h-7c0,4,2.92,7,7,7h9.058c2.725,0,3.08,0.218,5.33-3.109c1.633-2.68,2.537-2.92,3.612-3.327L36.886,25.886z"/><path fill="#f9f9f9" d="M19.172,16.034L13,25h6C19,25,22.759,20.517,19.172,16.034z"/></svg>